<svg xmlns="http://www.w3.org/2000/svg" viewBox="0 0 100 100" width="100" height="100">
  <defs>
    <linearGradient id="gold" x1="0.1" y1="0" x2="0.9" y2="1">
      <stop offset="0" stop-color="#F3DA8A"/>
      <stop offset="0.45" stop-color="#D9AE4C"/>
      <stop offset="1" stop-color="#A97C24"/>
    </linearGradient>
    <mask id="crescent">
      <rect width="100" height="100" fill="black"/>
      <circle cx="50" cy="50" r="38" fill="white"/>
      <circle cx="64" cy="42" r="34" fill="black"/>
    </mask>
  </defs>

  <rect width="100" height="100" rx="22" fill="#0B1733"/>

  <g transform="translate(13 13) scale(0.74)">
    <circle cx="50" cy="50" r="46" fill="none" stroke="url(#gold)" stroke-width="2.5"/>
    <rect width="100" height="100" fill="url(#gold)" mask="url(#crescent)"/>
    <g fill="url(#gold)">
      <path d="M44 20 C 34 36, 33 56, 38 76 C 30 60, 30 38, 44 20 Z"/>
      <path d="M44 20 C 40 44, 39 60, 38 76 L 41 76 C 50 56, 52 36, 44 20 Z"/>
    </g>
    <g stroke="#0B1733" stroke-width="1.2" stroke-linecap="round">
      <line x1="42" y1="32" x2="37" y2="36"/>
      <line x1="41" y1="42" x2="35" y2="46"/>
      <line x1="40" y1="52" x2="34" y2="56"/>
      <line x1="40" y1="62" x2="35" y2="66"/>
    </g>
    <g fill="url(#gold)">
      <path d="M70 40 l1.6 4.4 4.4 1.6 -4.4 1.6 -1.6 4.4 -1.6 -4.4 -4.4 -1.6 4.4 -1.6 Z"/>
      <path d="M64 60 l1 2.8 2.8 1 -2.8 1 -1 2.8 -1 -2.8 -2.8 -1 2.8 -1 Z"/>
      <path d="M73 56 l0.7 2 2 0.7 -2 0.7 -0.7 2 -0.7 -2 -2 -0.7 2 -0.7 Z"/>
    </g>
  </g>
</svg>
